<svg xmlns="http://www.w3.org/2000/svg" viewBox="0 0 500 500"><g id="freepik--background-simple--inject-12"><path d="M328.07,49.69S251.59,22.5,176.52,65.79,63.56,195,31,263.89,17.22,402.77,74.53,434.7s96.28-15.14,176.68-17.43,102,9.2,168.73-36.22,78.77-152.68,26.15-232S328.07,49.69,328.07,49.69Z" style="fill:#B0BEC5"></path><path d="M328.07,49.69S251.59,22.5,176.52,65.79,63.56,195,31,263.89,17.22,402.77,74.53,434.7s96.28-15.14,176.68-17.43,102,9.2,168.73-36.22,78.77-152.68,26.15-232S328.07,49.69,328.07,49.69Z" style="fill:#fff;opacity:0.7000000000000001"></path><line x1="14.67" y1="450.19" x2="490" y2="450.19" style="fill:none;stroke:#263238;stroke-linecap:round;stroke-linejoin:round;stroke-width:0.988167405128479px"></line></g><g id="freepik--Pictures--inject-12"><rect x="85" y="141.75" width="95.17" height="142.75" style="fill:#263238;stroke:#263238;stroke-linecap:round;stroke-linejoin:round;stroke-width:0.9516506809789789px"></rect><rect x="92.62" y="153.16" width="79.94" height="119.91" style="fill:#fff;stroke:#263238;stroke-linecap:round;stroke-linejoin:round;stroke-width:0.9516506809789789px"></rect><circle cx="133.06" cy="167.92" r="9.04" style="fill:#B0BEC5"></circle><line x1="111.65" y1="185.52" x2="151.62" y2="185.52" style="fill:none;stroke:#263238;stroke-miterlimit:10;stroke-width:0.9516506809789789px"></line><line x1="111.65" y1="254.99" x2="151.62" y2="254.99" style="fill:none;stroke:#263238;stroke-miterlimit:10;stroke-width:0.9516506809789789px"></line><line x1="99.28" y1="208.36" x2="166.85" y2="208.36" style="fill:none;stroke:#263238;stroke-miterlimit:10;stroke-width:0.9516506809789789px"></line><line x1="99.28" y1="215.02" x2="166.85" y2="215.02" style="fill:none;stroke:#263238;stroke-miterlimit:10;stroke-width:0.9516506809789789px"></line><line x1="99.28" y1="221.68" x2="166.85" y2="221.68" style="fill:none;stroke:#263238;stroke-miterlimit:10;stroke-width:0.9516506809789789px"></line><line x1="99.28" y1="228.35" x2="166.85" y2="228.35" style="fill:none;stroke:#263238;stroke-miterlimit:10;stroke-width:0.9516506809789789px"></line><line x1="99.28" y1="235.01" x2="166.85" y2="235.01" style="fill:none;stroke:#263238;stroke-miterlimit:10;stroke-width:0.9516506809789789px"></line></g><g id="freepik--Plants--inject-12"><path d="M58.07,419.2s.62-22.06-.16-41,.79-59.64.79-59.64" style="fill:none;stroke:#263238;stroke-miterlimit:10;stroke-width:0.988167405128479px"></path><line x1="58.34" y1="342.46" x2="49.72" y2="335.69" style="fill:none;stroke:#263238;stroke-miterlimit:10;stroke-width:0.988167405128479px"></line><line x1="58.25" y1="347.13" x2="61.31" y2="342.16" style="fill:none;stroke:#263238;stroke-miterlimit:10;stroke-width:0.988167405128479px"></line><line x1="57.55" y1="366.75" x2="65.2" y2="360.42" style="fill:none;stroke:#263238;stroke-miterlimit:10;stroke-width:0.988167405128479px"></line><line x1="58.7" y1="326.88" x2="54.66" y2="323.21" style="fill:none;stroke:#263238;stroke-miterlimit:10;stroke-width:0.988167405128479px"></line><line x1="57.47" y1="370.19" x2="52.42" y2="364.76" style="fill:none;stroke:#263238;stroke-miterlimit:10;stroke-width:0.988167405128479px"></line><line x1="57.92" y1="391.48" x2="47.39" y2="381.88" style="fill:none;stroke:#263238;stroke-miterlimit:10;stroke-width:0.988167405128479px"></line><path d="M58.19,403.31a63.42,63.42,0,0,0,7.8-3.64" style="fill:none;stroke:#263238;stroke-miterlimit:10;stroke-width:0.988167405128479px"></path><path d="M52.38,345.87C48.16,342.6,34,343.18,31.24,350S37.14,367.8,45.5,367c3.27-.31,4.68-.54,6-2.36h0L39.81,353.28l12.6,10.13a9.83,9.83,0,0,0,.87-2.07,16.06,16.06,0,0,0,.39-1.62C54.48,355.67,56.33,348.92,52.38,345.87Z" style="fill:#B0BEC5"></path><path d="M79.79,338c0,.07,0,.15-.05.23-1.14,5.06-6.92,7.93-11.78,7.5a11.77,11.77,0,0,1-2-.36,13.93,13.93,0,0,0-1.26,12.26,8.08,8.08,0,0,0,.83,1.6C67,358.06,82.29,345,82.29,345L66.38,360.32c4.78,5.13,16.05,4.43,20-5.09S85.32,339.36,79.79,338Z" style="fill:#B0BEC5"></path><path d="M72,320.31c-8.25-1.81-15.63,1.93-15.49,10.54A13.9,13.9,0,0,0,61.09,341l8.42-11.67-7.15,12.65a12.32,12.32,0,0,0,2.12,1.14,11.75,11.75,0,0,0,3.28.79c4.85.42,10.64-2.45,11.78-7.51C80.82,330.71,80.25,322.12,72,320.31Z" style="fill:#B0BEC5"></path><path d="M62.37,290.36s-.85.25-6.13,2.83S46.79,304.13,51,311.27c2.37,4.07,5.12,5.61,7.06,6.18l2.11-20.52-.85,20.79a5.47,5.47,0,0,0,1.2,0c3.43-.36,8.86-4.46,9.37-12.87S62.37,290.36,62.37,290.36Z" style="fill:#B0BEC5"></path><path d="M38.26,309l15.92,12.73a4.34,4.34,0,0,0,.15-1.79c-.73-7.29-8-11.51-12.8-13s-8.13,1.19-5.05,8.17,11.19,10.3,14.8,9.29A4.23,4.23,0,0,0,53.49,323Z" style="fill:#B0BEC5"></path><path d="M49.22,325.34c-3.44.11-9-2.34-12.25-7.07-3.34-.07-6.11,1.51-7,5.7-1.62,7.6,3.87,15.56,11.79,14.58,3.46-.42,5.46-1.61,6.6-2.81L34.19,322.82l15.16,11.55a4.78,4.78,0,0,0,.55-1.75A12.6,12.6,0,0,0,49.22,325.34Z" style="fill:#B0BEC5"></path><path d="M49.13,367.58a12.28,12.28,0,0,1-4.06,1C39.89,369,34.61,365,32,360.21c-3.18.51-5.72,2.22-6.33,5.69-1.57,8.89,6.66,20.61,15,18.76a11.87,11.87,0,0,0,5.79-2.94L28.26,364.26l19.21,16.29a10.19,10.19,0,0,0,2.05-4.87A11.06,11.06,0,0,0,49.13,367.58Z" style="fill:#B0BEC5"></path><path d="M85.66,385.82c-6.1-7.07-13.37-.74-13.37-.74s-4.46,1.47-6.14,7.78a9.73,9.73,0,0,0,.22,5.82L84.74,388l-17.92,11.7c1.67,3.17,5.32,5.11,10.31,3.71C85.22,401.12,91.77,392.89,85.66,385.82Z" style="fill:#B0BEC5"></path><rect x="45.02" y="412.54" width="25.42" height="37.64" style="fill:#263238"></rect></g><g id="freepik--Window--inject-12"><polygon points="347.37 81.63 237.53 81.63 236.08 96.73 347.37 96.73 347.37 81.63" style="fill:none;stroke:#263238;stroke-miterlimit:10;stroke-width:0.9477298090064181px"></polygon><polygon points="347.37 96.73 237.53 96.73 236.08 111.83 347.37 111.83 347.37 96.73" style="fill:none;stroke:#263238;stroke-miterlimit:10;stroke-width:0.9477298090064181px"></polygon><polygon points="347.37 111.83 237.53 111.83 236.08 126.93 347.37 126.93 347.37 111.83" style="fill:none;stroke:#263238;stroke-miterlimit:10;stroke-width:0.9477298090064181px"></polygon><polygon points="347.37 126.93 237.53 126.93 236.08 142.03 347.37 142.03 347.37 126.93" style="fill:none;stroke:#263238;stroke-miterlimit:10;stroke-width:0.9477298090064181px"></polygon><polygon points="347.37 142.03 237.53 142.03 236.08 157.13 347.37 157.13 347.37 142.03" style="fill:none;stroke:#263238;stroke-miterlimit:10;stroke-width:0.9477298090064181px"></polygon><polygon points="347.37 157.13 237.53 157.13 236.08 172.23 347.37 172.23 347.37 157.13" style="fill:none;stroke:#263238;stroke-miterlimit:10;stroke-width:0.9477298090064181px"></polygon><polygon points="347.37 172.23 237.53 172.23 236.08 187.33 347.37 187.33 347.37 172.23" style="fill:none;stroke:#263238;stroke-miterlimit:10;stroke-width:0.9477298090064181px"></polygon><polygon points="347.37 187.33 237.53 187.33 236.08 202.43 347.37 202.43 347.37 187.33" style="fill:none;stroke:#263238;stroke-miterlimit:10;stroke-width:0.9477298090064181px"></polygon><polygon points="347.37 202.43 237.53 202.43 236.08 217.53 347.37 217.53 347.37 202.43" style="fill:none;stroke:#263238;stroke-miterlimit:10;stroke-width:0.9477298090064181px"></polygon><polygon points="347.37 217.53 237.53 217.53 236.08 232.63 347.37 232.63 347.37 217.53" style="fill:none;stroke:#263238;stroke-miterlimit:10;stroke-width:0.9477298090064181px"></polygon><polygon points="347.37 232.63 237.53 232.63 236.08 247.73 347.37 247.73 347.37 232.63" style="fill:none;stroke:#263238;stroke-miterlimit:10;stroke-width:0.9477298090064181px"></polygon><polygon points="347.37 247.73 237.53 247.73 236.08 262.83 347.37 262.83 347.37 247.73" style="fill:none;stroke:#263238;stroke-miterlimit:10;stroke-width:0.9477298090064181px"></polygon><polygon points="347.37 262.83 237.53 262.83 236.08 277.93 347.37 277.93 347.37 262.83" style="fill:none;stroke:#263238;stroke-miterlimit:10;stroke-width:0.9477298090064181px"></polygon><polygon points="347.37 277.93 237.53 277.93 236.08 293.03 347.37 293.03 347.37 277.93" style="fill:none;stroke:#263238;stroke-miterlimit:10;stroke-width:0.9477298090064181px"></polygon><polygon points="347.37 293.03 237.53 293.03 236.08 308.13 347.37 308.13 347.37 293.03" style="fill:none;stroke:#263238;stroke-miterlimit:10;stroke-width:0.9477298090064181px"></polygon><polygon points="460.28 81.63 350.44 81.63 348.99 96.73 460.28 96.73 460.28 81.63" style="fill:none;stroke:#263238;stroke-miterlimit:10;stroke-width:0.9477298090064181px"></polygon><polygon points="460.28 96.73 350.44 96.73 348.99 111.83 460.28 111.83 460.28 96.73" style="fill:none;stroke:#263238;stroke-miterlimit:10;stroke-width:0.9477298090064181px"></polygon><polygon points="460.28 111.83 350.44 111.83 348.99 126.93 460.28 126.93 460.28 111.83" style="fill:none;stroke:#263238;stroke-miterlimit:10;stroke-width:0.9477298090064181px"></polygon><polygon points="460.28 126.93 350.44 126.93 348.99 142.03 460.28 142.03 460.28 126.93" style="fill:none;stroke:#263238;stroke-miterlimit:10;stroke-width:0.9477298090064181px"></polygon><polygon points="460.28 142.03 350.44 142.03 348.99 157.13 460.28 157.13 460.28 142.03" style="fill:none;stroke:#263238;stroke-miterlimit:10;stroke-width:0.9477298090064181px"></polygon><polygon points="460.28 157.13 350.44 157.13 348.99 172.23 460.28 172.23 460.28 157.13" style="fill:none;stroke:#263238;stroke-miterlimit:10;stroke-width:0.9477298090064181px"></polygon><polygon points="460.28 172.23 350.44 172.23 348.99 187.33 460.28 187.33 460.28 172.23" style="fill:none;stroke:#263238;stroke-miterlimit:10;stroke-width:0.9477298090064181px"></polygon><polygon points="460.28 187.33 350.44 187.33 348.99 202.43 460.28 202.43 460.28 187.33" style="fill:none;stroke:#263238;stroke-miterlimit:10;stroke-width:0.9477298090064181px"></polygon><polygon points="460.28 202.43 350.44 202.43 348.99 217.53 460.28 217.53 460.28 202.43" style="fill:none;stroke:#263238;stroke-miterlimit:10;stroke-width:0.9477298090064181px"></polygon><polygon points="460.28 217.53 350.44 217.53 348.99 232.63 460.28 232.63 460.28 217.53" style="fill:none;stroke:#263238;stroke-miterlimit:10;stroke-width:0.9477298090064181px"></polygon><polygon points="460.28 232.63 350.44 232.63 348.99 247.73 460.28 247.73 460.28 232.63" style="fill:none;stroke:#263238;stroke-miterlimit:10;stroke-width:0.9477298090064181px"></polygon><polygon points="460.28 247.73 350.44 247.73 348.99 262.83 460.28 262.83 460.28 247.73" style="fill:none;stroke:#263238;stroke-miterlimit:10;stroke-width:0.9477298090064181px"></polygon><polygon points="460.28 262.83 350.44 262.83 348.99 277.93 460.28 277.93 460.28 262.83" style="fill:none;stroke:#263238;stroke-miterlimit:10;stroke-width:0.9477298090064181px"></polygon><polygon points="460.28 277.93 350.44 277.93 348.99 293.03 460.28 293.03 460.28 277.93" style="fill:none;stroke:#263238;stroke-miterlimit:10;stroke-width:0.9477298090064181px"></polygon><polygon points="460.28 293.03 350.44 293.03 348.99 308.13 460.28 308.13 460.28 293.03" style="fill:none;stroke:#263238;stroke-miterlimit:10;stroke-width:0.9477298090064181px"></polygon><rect x="233.52" y="69.93" width="232.26" height="11.39" style="fill:none;stroke:#263238;stroke-miterlimit:10;stroke-width:0.9477298090064181px"></rect><line x1="465.78" y1="81.33" x2="465.78" y2="281.95" style="fill:none;stroke:#263238;stroke-miterlimit:10;stroke-width:0.9477298090064181px"></line><line x1="463.25" y1="81.65" x2="463.25" y2="219.29" style="fill:none;stroke:#263238;stroke-miterlimit:10;stroke-width:0.9477298090064181px"></line><rect x="464.3" y="281.5" width="3.12" height="5.11" style="fill:#263238;stroke:#263238;stroke-miterlimit:10;stroke-width:0.9477298090064181px"></rect><rect x="461.49" y="218.2" width="3.12" height="5.11" style="fill:#263238;stroke:#263238;stroke-miterlimit:10;stroke-width:0.9477298090064181px"></rect></g><g id="freepik--Character--inject-12"><path d="M422.69,450.19c4-12.48,20.14-64.17,20.14-76.09,0-13.57-4.81-15.32-14-18s-85.37-1.31-94.56.88-13.14,11-14.89,18.83c-1.58,7.11-16.34,63.38-19.21,74.33Z" style="fill:#fff;stroke:#263238;stroke-linecap:round;stroke-linejoin:round;stroke-width:0.988167405128479px"></path><path d="M422.69,450.19c4-12.48,20.14-64.17,20.14-76.09,0-12.16-3.87-14.83-11.3-17.14l-.08.07s-8.32-1.31-10.95,7.88c-2.08,7.28-15.67,62.55-21.25,85.28Z" style="fill:#263238;stroke:#263238;stroke-linecap:round;stroke-linejoin:round;stroke-width:0.988167405128479px"></path><path d="M167.46,381.14s8,8,14.54,10.38,14.19-1,14.19-1-4.85-13.85-15.93-20.08S164.69,374.22,167.46,381.14Z" style="fill:#fff;stroke:#263238;stroke-linecap:round;stroke-linejoin:round;stroke-width:0.988167405128479px"></path><path d="M159.5,371.45s-14.19,17.65-11.08,20.07,11.42-11.76,12.46-12.46S164,371.79,159.5,371.45Z" style="fill:#fff;stroke:#263238;stroke-linecap:round;stroke-linejoin:round;stroke-width:0.988167405128479px"></path><path d="M166.42,366.26s-4.85-2.43-6.92,0-1,10.38-.7,16.26,1.39,14.89,4.85,12.81,3.12-18.69,3.12-22.5A58.08,58.08,0,0,0,166.42,366.26Z" style="fill:#fff;stroke:#263238;stroke-linecap:round;stroke-linejoin:round;stroke-width:0.988167405128479px"></path><path d="M175.77,366.6s-6.24-3.11-9-2.42-3.47,18-3.47,23.88,4.5,9.35,5.89,6.93,2.77-20.43,3.81-23.2A25.52,25.52,0,0,1,175.77,366.6Z" style="fill:#fff;stroke:#263238;stroke-linecap:round;stroke-linejoin:round;stroke-width:0.988167405128479px"></path><path d="M253,395.33s-1.73-2.77-15.57-5.54-32.54-7.61-34.62-8.65S184.07,368,179.23,365.22s-6.93,1-8,4.84-4.5,21.46-4.16,23.19,3.46,4.16,4.5,1.74,5.54-16.27,5.89-17.66,11.42,11.08,14.19,13.85,5.88,4.5,9.69,4.5a48.1,48.1,0,0,0,6.23-.35s38.07,25.27,45,28.38,12.8-.69,13.49-2.76,1.39-14.54-2.42-19S253,395.33,253,395.33Z" style="fill:#fff;stroke:#263238;stroke-linecap:round;stroke-linejoin:round;stroke-width:0.988167405128479px"></path><path d="M193.42,379.06a47.7,47.7,0,0,1-13.5-4.5c-6.58-3.46-9.35,1.39-6.58,5.2s11.42,4.84,11.42,4.84,5.2,8.31,12.47,10.39a12.53,12.53,0,0,0,12.11-3.12" style="fill:#fff;stroke:#263238;stroke-linecap:round;stroke-linejoin:round;stroke-width:0.988167405128479px"></path><path d="M265.07,340.3s-12.81,42.92-9.35,46.38,15.23,12.11,17,10,6.92-19.39,6.92-29.42S267.49,334.07,265.07,340.3Z" style="fill:#B0BEC5;stroke:#263238;stroke-linecap:round;stroke-linejoin:round;stroke-width:0.988167405128479px"></path><path d="M276.83,393.6s-12.8-10.73-17-11.77-4.5-1.38-7.61,4.16-4.15,8-1.38,10,12.46,15.23,18.69,16.27S277.53,403.64,276.83,393.6Z" style="fill:#B0BEC5;stroke:#263238;stroke-linecap:round;stroke-linejoin:round;stroke-width:0.988167405128479px"></path><path d="M251.27,450.19H386.69c1.13-4.34,9.09-35.2,12-49.67,3.12-15.57,8.66-70.26,8.66-79.26s-.35-32-5.89-41-28.38-27.69-42.92-35-26-13.5-33.57-14.19-35.31,22.15-44,42.23c0,0-17,12.46-18.35,20.42s-1.38,17.45,2.08,35.45S269.57,359,269.57,359,256.76,397.06,255,412.64C253.45,426.82,251.59,446.73,251.27,450.19Z" style="fill:#B0BEC5;stroke:#263238;stroke-linecap:round;stroke-linejoin:round;stroke-width:0.988167405128479px"></path><path d="M276.88,292.61s-3.81,4.24-.85,4.24,6.78-5.51,10.17-4.24,13.55,8.47,13.55,8.47,5.51,3.82,7.2,2.55S318.39,290.5,323.9,293s11.43,9.32,12.28,5.93-5.51-19.49-8.05-27.11-29.22-11.86-39-3.39S276.88,292.61,276.88,292.61Z" style="fill:#263238;stroke:#263238;stroke-linecap:round;stroke-linejoin:round;stroke-width:0.988167405128479px"></path><path d="M304.64,306.32s-3.58,2.13-3.58,16.67a271,271,0,0,0,1.73,28.73s-3.11,1-2.76,3.11,5.19,2.43,5.19,2.43-23.19,53-24.58,83.07" style="fill:none;stroke:#263238;stroke-linecap:round;stroke-linejoin:round;stroke-width:0.988167405128479px"></path><path d="M325.15,348.74c1.49-.09,2.93-.14,4.3-.14" style="fill:none;stroke:#263238;stroke-linecap:round;stroke-linejoin:round;stroke-width:0.988167405128479px"></path><path d="M284.1,355.87s19.4-5,35.7-6.69" style="fill:none;stroke:#263238;stroke-linecap:round;stroke-linejoin:round;stroke-width:0.988167405128479px"></path><path d="M293.45,359.68s22.15-4.85,37.73-5.54" style="fill:none;stroke:#263238;stroke-linecap:round;stroke-linejoin:round;stroke-width:0.988167405128479px"></path><path d="M283.3,269.86s-3.51,9.46-6.75,16.48-8.1,10.8-5.13,11.07,12.69-7.56,15.12-10,7.29,5.67,9.19,8.64,7.56,10.8,8.91,10.26,15.93-19.44,18.63-22.14,9.73,13.77,13.78,17,2.43-3.51,1.89-7.56-2.7-37-5.4-52.12-11.89-21.34-16.75-21.88-13,0-17.82,6.21S283.3,269.86,283.3,269.86Z" style="fill:#B0BEC5;stroke:#263238;stroke-linecap:round;stroke-linejoin:round;stroke-width:0.988167405128479px"></path><path d="M286,271.76s10,12.15,13,21.87,5.67,15.4,7,12.15,13-35.38,13.77-50.5-.27-21.88-1.89-26.74-6.75-16.74-6.75-16.74-9.72-1.08-12.69,5.67-8.92,31.87-12.16,40A18.94,18.94,0,0,0,286,271.76Z" style="fill:#fff;stroke:#263238;stroke-linecap:round;stroke-linejoin:round;stroke-width:0.988167405128479px"></path><path d="M309,229l-9.87-7.88L293.27,234c-2.51,9-5.18,18.91-7,23.45a18.94,18.94,0,0,0-.27,14.32A104.73,104.73,0,0,1,295.08,285C305.4,264.69,309,229,309,229Z" style="fill:#263238;stroke:#263238;stroke-linecap:round;stroke-linejoin:round;stroke-width:0.988167405128479px"></path><path d="M224.3,171.4s-6.25,18.06-1.74,26,13.89,17,18.41,28.82,9.37,23.61,8.68,31.94-.7,18.41,4.86,23.27,20.83,4.51,32.29-4.17S299,250.56,299,250.56,308.67,235.63,309,229s.35-12.85.35-12.85,10.07-7.29,10.07-20.48-5.21-13.55-5.21-13.55a31.88,31.88,0,0,1-7-14.93c-1.73-9.37-4.51-19.44-12.84-22.22s-29.17,2.78-42.36,10.42S224.3,171.4,224.3,171.4Z" style="fill:#fff;stroke:#263238;stroke-linecap:round;stroke-linejoin:round;stroke-width:0.988167405128479px"></path><path d="M238.54,176.26A12.65,12.65,0,0,0,225,173.83c-8.34,3.13-9.38,13.2-9.38,13.2s-6.6-2.43-6.6-6.25v-6.25s-6.59,5.55-4.86,10.41a13.19,13.19,0,0,0,6.6,6.95s-13.19-.7-17.36-8,3.82-14.58,3.82-14.58L192.7,169s4.87-6.94,11.81-8.68,10.42-1,10.42-1l-6.25-2.43s6.59-6.25,12.15-7.29a35.43,35.43,0,0,1,9-.7s21.52-16,40.62-17.36,34.72,8.34,39.23,18.4,4.52,26.74,4.52,29.52v2.77s-7,0-8.68,4.17.69,9.72-2.09,11.11-7.63-1.73-9.72-4.86-.34-7.29-2.78-9-11.11,1-16.31-2.43-3.82-14.93-1-19.09,19.1-11.11,18.06-13.54-17.36,8.68-20.14,12.15-12.85,10.76-19.79,13.19A44.51,44.51,0,0,1,238.54,176.26Z" style="fill:#263238;stroke:#263238;stroke-linecap:round;stroke-linejoin:round;stroke-width:0.988167405128479px"></path><path d="M303.46,197.44c2.78-1.39.35-6.94,2.09-11.11s8.68-4.17,8.68-4.17v-2.77a109.67,109.67,0,0,0-1.93-21.14c-6,0-11.63.93-16,3.13-5.77,2.88-1.44,2.16,2.88,4.33s-7.93,2.88-16.57,7.2-7.93,8.21-7.93,8.21c5.2,3.48,13.88.7,16.31,2.43s.7,5.91,2.78,9S300.69,198.83,303.46,197.44Z" style="fill:#fff;stroke:#8c8c8c;stroke-linecap:round;stroke-linejoin:round;stroke-width:0.988167405128479px"></path><path d="M305.93,185.33a1.06,1.06,0,0,0-1.2.3l-14.59,17a1.09,1.09,0,0,0,.82,1.79,1.06,1.06,0,0,0,.82-.38l13.09-15.26A7.21,7.21,0,0,1,305.93,185.33Z" style="fill:#263238"></path><path d="M288.59,238c-7.34-2.37-23.2-.71-26.52,1.66,0,0-8.81,6.56-13.25,9.67a30.38,30.38,0,0,1,.83,8.86c-.7,8.34-.7,18.41,4.86,23.27s20.83,4.51,32.29-4.17S299,250.56,299,250.56,295.94,240.38,288.59,238Z" style="fill:#263238;stroke:#263238;stroke-linecap:round;stroke-linejoin:round;stroke-width:0.988167405128479px"></path><path d="M256.62,249.38s2.2,4.91,11.56,4.91,12.24-11.52,12.24-11.52-7.92-3.6-14.4-2.16S256.62,249.38,256.62,249.38Z" style="fill:#fff;stroke:#263238;stroke-linecap:round;stroke-linejoin:round;stroke-width:0.988167405128479px"></path><path d="M244,210.51c.67,1.91.42,3.74-.57,4.09s-2.33-.93-3-2.84-.42-3.75.57-4.09S243.29,208.59,244,210.51Z" style="fill:#263238"></path><path d="M268.12,205.06c.67,1.91.41,3.74-.57,4.09s-2.33-.92-3-2.84-.41-3.74.58-4.09S267.45,203.15,268.12,205.06Z" style="fill:#263238"></path><path d="M222.91,216.54l68-13.2s2.09,12.16-1.73,14.93-19.1,4.87-23.26,4.52-9-10-9-10l-4.53,1a59.82,59.82,0,0,0,.35,6.25,43.19,43.19,0,0,1,.35,4.86v.35A25.84,25.84,0,0,1,242.7,229C236.11,230.08,227.77,232.51,222.91,216.54Z" style="fill:none;stroke:#263238;stroke-linecap:round;stroke-linejoin:round;stroke-width:1.976334810256958px"></path><line x1="252.42" y1="213.76" x2="251.96" y2="211.5" style="fill:none;stroke:#263238;stroke-linecap:round;stroke-linejoin:round;stroke-width:1.976334810256958px"></line><line x1="256.95" y1="212.79" x2="256.15" y2="210.53" style="fill:none;stroke:#263238;stroke-linecap:round;stroke-linejoin:round;stroke-width:1.976334810256958px"></line><path d="M228.59,206.2a1,1,0,0,0-.43.36L222,216a1.08,1.08,0,0,0,.9,1.67,1.09,1.09,0,0,0,.91-.49l6-9.23Z" style="fill:#263238"></path><path d="M253.05,215.4s1.08,15.84,2.88,19.44,16.57,0,17.65-2.52-1.08-5.4-1.08-5.4h-3.6" style="fill:none;stroke:#263238;stroke-linecap:round;stroke-linejoin:round;stroke-width:0.988167405128479px"></path><path d="M243.6,202.49a6.71,6.71,0,0,0-6.4-.48c-3.31,1.66-5.21,5.21-6.16,5.21s-.47-6.15,3.32-8.52,8.76.71,9.71,1.89S244.54,203,243.6,202.49Z" style="fill:#263238;stroke:#263238;stroke-linecap:round;stroke-linejoin:round;stroke-width:0.988167405128479px"></path><path d="M270.5,194.3a6.65,6.65,0,0,0-5.87-2.57c-3.68.46-6.64,3.18-7.54,2.86s1.6-6,6-6.94,8,3.59,8.53,5S271.24,195.06,270.5,194.3Z" style="fill:#263238;stroke:#263238;stroke-linecap:round;stroke-linejoin:round;stroke-width:0.988167405128479px"></path><path d="M240.75,218.36s5.69-1.66,9-5.69" style="fill:none;stroke:#263238;stroke-linecap:round;stroke-linejoin:round;stroke-width:0.988167405128479px"></path><path d="M262.07,210.07s3.55,2.13,10.89,1.42" style="fill:none;stroke:#263238;stroke-linecap:round;stroke-linejoin:round;stroke-width:0.988167405128479px"></path><path d="M255.93,234.84a55.25,55.25,0,0,1-7.6,7.44c-3.31,2.36-7.1,2.6-6.86,4.26s8.76,5,15.15,2.84,9-5.45,9-5.45a18.24,18.24,0,0,0,14,4c8.29-1.18,16.35-10.42,17.29-12.55s-1.89,1.42-9,.23a136.36,136.36,0,0,1-14.3-3.32s-2.51,1.9-8.19,3.32S256.9,235,255.93,234.84Z" style="fill:#263238;stroke:#263238;stroke-linecap:round;stroke-linejoin:round;stroke-width:0.988167405128479px"></path><path d="M250.35,184.52s6.75-9.18,15.13-4.32" style="fill:none;stroke:#263238;stroke-linecap:round;stroke-linejoin:round;stroke-width:0.988167405128479px"></path><path d="M201,383.91s-5.54.35-9.34-2.42-7.62-.7-8,2.07,3.11,8,7.26,9.69,14.54,1.39,17,1.74,6.23,6.23,13.49,9,18.7,2.08,18.7,2.08-.35-11.42-4.16-17-16.61-11.42-22.5-9A82.65,82.65,0,0,1,201,383.91Z" style="fill:#fff;stroke:#263238;stroke-linecap:round;stroke-linejoin:round;stroke-width:0.988167405128479px"></path><path d="M208,376.29s-4.5.35-6.58,3.12-9,18-9,22.5,2.42,9.69,4.15,7.27S198.61,398.79,200,395s8.31-15.23,9.35-15.93S209,376,208,376.29Z" style="fill:#fff;stroke:#263238;stroke-linecap:round;stroke-linejoin:round;stroke-width:0.988167405128479px"></path><path d="M218,374.56s-5.54-3.11-8.3-1.73-6.58,16.62-6.93,21.12,1,21.11,5.2,20.76S210,404,210,397.06s6.92-17,6.92-17Z" style="fill:#fff;stroke:#263238;stroke-linecap:round;stroke-linejoin:round;stroke-width:0.988167405128479px"></path><path d="M353.68,382.18s-1.39,3.81-23.54,5.88-71.65,5.19-72.69,5.19-22.84-14.53-29.07-18.69-10-3.8-12.81-1-9,20.76-8.65,23.53,1.73,15.23,4.15,16.27,3.12-1,3.12-4.5-.7-15.23-.7-15.23l9.35-8.31s12.81,23.19,22.5,25.27a38.2,38.2,0,0,0,17,0s49.49,17,79.61,17.31,50.53,3.46,54.69-8-27.35-37-31.16-38.42S353.68,382.18,353.68,382.18Z" style="fill:#fff;stroke:#263238;stroke-linecap:round;stroke-linejoin:round;stroke-width:0.988167405128479px"></path><path d="M235.3,386.68s-8-6.58-10.38-6.23-10,5.54-13.16,7.27-8.65,5.53-12.11,10.38-.35,7.27,1.38,5.54,8-7.27,9.35-8.31,11.77-5.88,11.77-5.88l16.61,12.46" style="fill:#fff;stroke:#263238;stroke-linecap:round;stroke-linejoin:round;stroke-width:0.988167405128479px"></path><path d="M368.21,290s-13.15,7.07-13.5,20.57,2.43,58.84,2.43,58.84-4.5,6.92,1.38,11.08,39.81,24.23,44.31,17.65,9.69-50.88,9.69-82.38-5.89-30.6-9.69-36.14-10.73-7.27-10.73-7.27" style="fill:#B0BEC5;stroke:#263238;stroke-linecap:round;stroke-linejoin:round;stroke-width:0.988167405128479px"></path><path d="M384.83,373.18s-22.85-7.62-26.31-7.27-3.81,5.54-8,10.38-3.82,9.1-2.44,9.8,18.83,4.07,30.25,15.84,11.3,24.55,15.46,24.21,4.5-6.58,8-16.62,7.61-17.65,4.84-24.92S384.83,373.18,384.83,373.18Z" style="fill:#B0BEC5;stroke:#263238;stroke-linecap:round;stroke-linejoin:round;stroke-width:0.988167405128479px"></path><path d="M349.87,378.37s22.84-2.08,37.38,9.35" style="fill:none;stroke:#263238;stroke-linecap:round;stroke-linejoin:round;stroke-width:0.988167405128479px"></path><path d="M365.1,375.26s20.42,3.11,28.38,12.8" style="fill:none;stroke:#263238;stroke-linecap:round;stroke-linejoin:round;stroke-width:0.988167405128479px"></path><path d="M299.66,450.19h10.58c44.29-13.79,107.45-2,108.09-1.84a9.18,9.18,0,1,0,3.47-18c-2.89-.56-71.26-13.4-120.29,3.39a9.16,9.16,0,0,0-1.85,16.48Z" style="fill:#fff;stroke:#263238;stroke-linecap:round;stroke-linejoin:round;stroke-width:0.988167405128479px"></path><path d="M307.11,450.19h10.57c44.29-13.79,107.45-2,108.1-1.84a9.18,9.18,0,1,0,3.46-18c-2.88-.56-71.26-13.4-120.29,3.39a9.16,9.16,0,0,0-1.84,16.48Z" style="fill:#263238;stroke:#263238;stroke-linecap:round;stroke-linejoin:round;stroke-width:0.988167405128479px"></path></g><g id="freepik--Typewriter--inject-12"><path d="M121.61,375.19H148a43.16,43.16,0,0,1,6.16,19.06H126.6Z" style="fill:#d6d6d6;stroke:#263238;stroke-linecap:round;stroke-linejoin:round;stroke-width:0.988167405128479px"></path><path d="M132.87,392.83s-7-23.64-18-24.51c-17.72-1.43-48.17.87-48.17.87S91.28,379.7,92.6,398.53h42.9Z" style="fill:#d6d6d6;stroke:#263238;stroke-linecap:round;stroke-linejoin:round;stroke-width:0.988167405128479px"></path><path d="M114.92,368.32a11.8,11.8,0,0,0-8.32.87c-3.94,2.19-12.69,14.45-12.69,14.45H45.74s11.38-10.07,21-14.45S101.83,365.65,114.92,368.32Z" style="fill:#fff;stroke:#263238;stroke-linecap:round;stroke-linejoin:round;stroke-width:0.988167405128479px"></path><path d="M72.89,390.64h70.64a14.71,14.71,0,0,1,11.77,5.86c5.67,7.53,16.89,20.15,31,24.35,12.86,3.83,21.79,3.9,26.68,3.41a4,4,0,0,1,4.35,4.12c-.21,5-.95,12.34-3.45,15.68a16.76,16.76,0,0,1-10.06,6.13H68.52s-13.14-5.26-10.07-20.58S72.89,390.64,72.89,390.64Z" style="fill:#263238;stroke:#263238;stroke-linecap:round;stroke-linejoin:round;stroke-width:0.988167405128479px"></path><path d="M100,390.64h70.64a14.7,14.7,0,0,1,11.76,5.86c5.67,7.53,16.89,20.15,31,24.35,12.86,3.83,21.78,3.9,26.67,3.41a4,4,0,0,1,4.35,4.12c-.2,5-.94,12.34-3.44,15.68a16.77,16.77,0,0,1-10.07,6.13H95.66s-13.13-5.26-10.07-20.58S100,390.64,100,390.64Z" style="fill:#fff;stroke:#263238;stroke-linecap:round;stroke-linejoin:round;stroke-width:0.988167405128479px"></path><circle cx="135.5" cy="411.22" r="11.38" transform="translate(-251.09 216.26) rotate(-45)" style="fill:#fff;stroke:#263238;stroke-linecap:round;stroke-linejoin:round;stroke-width:0.988167405128479px"></circle><circle cx="139" cy="411.22" r="11.38" transform="translate(-250.06 218.73) rotate(-45)" style="fill:#263238;stroke:#263238;stroke-linecap:round;stroke-linejoin:round;stroke-width:0.988167405128479px"></circle></g></svg>