<svg xmlns="http://www.w3.org/2000/svg" x="0px" y="0px" width="100" height="100" viewBox="0,0,256,256">
<g fill="#ffffff"  stroke="none" stroke-width="1" stroke-linecap="butt" stroke-linejoin="miter" stroke-miterlimit="10" stroke-dasharray="" stroke-dashoffset="0" font-family="none" font-weight="none" font-size="none" text-anchor="none" style="mix-blend-mode: normal"><g transform="scale(8,8)"><path d="M19,3c-5.51172,0 -10,4.48828 -10,10c0,2.39453 0.83984,4.58984 2.25,6.3125l-7.96875,7.96875l1.4375,1.4375l7.96875,-7.96875c1.72266,1.41016 3.91797,2.25 6.3125,2.25c5.51172,0 10,-4.48828 10,-10c0,-5.51172 -4.48828,-10 -10,-10zM19,5c4.42969,0 8,3.57031 8,8c0,4.42969 -3.57031,8 -8,8c-4.42969,0 -8,-3.57031 -8,-8c0,-4.42969 3.57031,-8 8,-8z"></path></g></g>
</svg>