<svg width="61" height="69" viewBox="0 0 61 69" fill="none" xmlns="http://www.w3.org/2000/svg">
<path d="M54.5017 35.5858C52.0956 36.7457 48.1841 41.632 48.1841 41.632C45.4695 42.36 44.6057 43.742 44.6057 43.742C44.9512 44.3466 44.8525 44.6304 44.8525 44.6304C42.94 45.1239 43.9888 45.9877 43.9888 45.9877L42.212 46.9131L42.4958 47.6905C41.3606 47.6164 40.9657 48.4308 40.9657 48.4308C40.6943 50.1829 38.4115 49.492 38.4115 49.492L38.6707 50.4791C34.6975 51.1084 30.3911 56.2908 30.3911 56.2908C30.86 57.3149 30.0456 57.9812 27.9974 58.154C25.9367 58.3267 22.9383 59.8938 22.9383 59.8938C23.0247 61.6706 20.4705 60.8192 19.8165 61.8804C19.1749 62.9292 18.0521 62.8428 18.0521 62.8428C17.904 64.5456 16.2382 63.941 16.2382 63.941C16.3986 66.2484 13.9555 66.5075 13.9555 66.5075C14.0419 64.669 9.96997 66.3965 9.05688 67.4329C8.13145 68.4571 7.85999 68.2967 6.89754 68.0252C5.93509 67.7661 5.07136 69 5.07136 69H48.69L60.3134 57.3643V41.3975L54.5017 35.5858ZM0 60.5478C1.17221 59.9678 0.728005 59.2028 0.728005 59.2028H2.22103C5.47855 55.427 6.92222 58.6969 10.772 53.8476C14.6218 48.9861 16.1765 50.7135 17.8917 49.5536C19.6191 48.4061 19.4217 47.0488 21.9019 46.8144C24.382 46.5676 24.4067 45.1856 24.4067 45.1856C26.9979 46.0494 27.6148 43.4088 27.6148 43.4088C27.6148 43.4088 28.713 45.5928 31.3536 43.0756C33.9941 40.5585 35.0923 42.8042 37.0666 40.904C39.0408 38.9914 42.0145 39.3616 42.0145 39.3616C44.3466 38.2758 45.6052 35.9313 45.6052 35.9313L46.9625 37.0665C47.8756 35.8696 49.8498 35.7586 50.7259 35.5612C51.5897 35.3637 53.2184 34.3026 53.2184 34.3026L59.3263 28.1947V11.6357L47.7029 0H0V35.9313C11.8085 27.7999 21.9759 24.7768 28.4169 22.7039C34.8702 20.6309 37.9303 16.3369 37.9303 16.3369L39.2629 17.5215C43.2731 17.4227 44.5934 14.301 47.6782 13.3632C50.7629 12.4131 53.0827 10.7473 53.0827 10.7473C52.1696 12.6599 49.8622 14.5724 46.3209 16.5837C42.7672 18.595 40.3734 22.0993 40.3734 22.0993C38.2388 22.6668 36.7334 24.1229 36.7334 24.1229L36.9432 25.0236C35.2527 25.2581 36.0548 26.3562 36.0548 26.3562L34.2533 27.2446L34.5 27.985C34.426 27.8616 34.0929 27.4297 32.97 28.713C31.6744 30.1937 30.3911 29.7124 30.3911 29.7124L30.6256 30.7119C29.2313 30.4034 22.198 36.3138 22.198 36.3138C22.1116 37.6218 21.8648 37.5724 19.5821 38.103C17.287 38.6212 14.6588 39.7318 14.6588 39.7318C14.6588 39.7318 14.9056 41.2248 12.4748 41.0397C10.0563 40.867 9.68617 42.5697 9.68617 42.5697C9.41471 44.3219 7.85999 43.6186 7.85999 43.6186C7.63788 45.9383 5.50323 46.1234 5.50323 46.1234C4.96031 43.7296 0.0740344 47.2956 0.0740344 47.2956" fill="#BD0000"/>
</svg>
