<?xml version="1.0" encoding="utf-8"?>
<!-- Uploaded to: SVG Repo, www.svgrepo.com, Generator: SVG Repo Mixer Tools -->
<svg width="800px" height="800px" viewBox="0 0 48 48" xmlns="http://www.w3.org/2000/svg" xmlns:xlink="http://www.w3.org/1999/xlink">
  <defs>
    <linearGradient id="linear-gradient" x1="0.5" x2="0.5" y2="1" gradientUnits="objectBoundingBox">
      <stop offset="0" stop-color="#00a3ff"/>
      <stop offset="1" stop-color="#005db3"/>
    </linearGradient>
    <clipPath id="clip-Folder">
      <rect width="48" height="48"/>
    </clipPath>
  </defs>
  <g id="Folder" clip-path="url(#clip-Folder)">
    <rect width="48" height="48" fill="rgba(255,255,255,0)"/>
    <g id="Folder-2" data-name="Folder" transform="translate(8 11)">
      <g id="Icon" transform="translate(2)" stroke-miterlimit="10" fill="url(#linear-gradient)">
        <path d="M4,23a4,4,0,0,1-4-4V2A2,2,0,0,1,2,0H12a2,2,0,0,1,2,2V3H24a4,4,0,0,1,4,4V19a4,4,0,0,1-4,4Z" stroke="none"/>
        <path d="M 24.00030136108398 22.50040054321289 C 25.92999076843262 22.50040054321289 27.49990081787109 20.93008041381836 27.49990081787109 18.99990081787109 L 27.49990081787109 7.000200271606445 C 27.49990081787109 5.070020198822021 25.92999076843262 3.499700307846069 24.00030136108398 3.499700307846069 L 14.00040054321289 3.499700307846069 L 13.50040054321289 3.499700307846069 L 13.50040054321289 2.999700307846069 L 13.50040054321289 1.999800324440002 C 13.50040054321289 1.172810316085815 12.82719039916992 0.5000002980232239 11.99970054626465 0.5000002980232239 L 1.999800443649292 0.5000002980232239 C 1.172810435295105 0.5000002980232239 0.5000004172325134 1.172810316085815 0.5000004172325134 1.999800324440002 L 0.5000004172325134 7.000200271606445 L 0.5000004172325134 18.99990081787109 C 0.5000004172325134 20.93008041381836 2.069910526275635 22.50040054321289 3.999600410461426 22.50040054321289 L 24.00030136108398 22.50040054321289 M 24.00030136108398 23.00040054321289 L 3.999600410461426 23.00040054321289 C 1.791000366210938 23.00040054321289 4.089355343239731e-07 21.20940017700195 4.089355343239731e-07 18.99990081787109 L 4.089355343239731e-07 7.000200271606445 L 4.089355343239731e-07 1.999800324440002 C 4.089355343239731e-07 0.8955002427101135 0.8955004215240479 2.716064386731887e-07 1.999800443649292 2.716064386731887e-07 L 11.99970054626465 2.716064386731887e-07 C 13.10490036010742 2.716064386731887e-07 14.00040054321289 0.8955002427101135 14.00040054321289 1.999800324440002 L 14.00040054321289 2.999700307846069 L 24.00030136108398 2.999700307846069 C 26.20890045166016 2.999700307846069 27.99990081787109 4.790700435638428 27.99990081787109 7.000200271606445 L 27.99990081787109 18.99990081787109 C 27.99990081787109 21.20940017700195 26.20890045166016 23.00040054321289 24.00030136108398 23.00040054321289 Z" stroke="none" fill="rgba(255,255,255,0.3)"/>
      </g>
      <g id="Icon-2" data-name="Icon" transform="translate(0 7)" fill="rgba(125,204,255,0.2)" stroke-miterlimit="10">
        <path d="M4,0H28a4,4,0,0,1,4,4V15a4,4,0,0,1-4,4H4a4,4,0,0,1-4-4V4A4,4,0,0,1,4,0Z" stroke="none"/>
        <path d="M 4 0.5 C 2.070089340209961 0.5 0.5 2.070089340209961 0.5 4 L 0.5 15 C 0.5 16.92991065979004 2.070089340209961 18.5 4 18.5 L 28 18.5 C 29.92991065979004 18.5 31.5 16.92991065979004 31.5 15 L 31.5 4 C 31.5 2.070089340209961 29.92991065979004 0.5 28 0.5 L 4 0.5 M 4 0 L 28 0 C 30.20914077758789 0 32 1.790859222412109 32 4 L 32 15 C 32 17.20914077758789 30.20914077758789 19 28 19 L 4 19 C 1.790859222412109 19 0 17.20914077758789 0 15 L 0 4 C 0 1.790859222412109 1.790859222412109 0 4 0 Z" stroke="none" fill="rgba(255,255,255,0.3)"/>
      </g>
    </g>
  </g>
</svg>